<?xml version="1.0" encoding="utf-8"?>
<!-- Generator: Adobe Illustrator 27.0.0, SVG Export Plug-In . SVG Version: 6.00 Build 0)  -->
<svg version="1.1" id="Capa_1" xmlns="http://www.w3.org/2000/svg" xmlns:xlink="http://www.w3.org/1999/xlink" x="0px" y="0px"
	 viewBox="0 0 446.2 126.8" style="enable-background:new 0 0 446.2 126.8;" xml:space="preserve">
<style type="text/css">
	.st0{fill:#FFFFFF;}
</style>
<g>
	<path class="st0" d="M6.2,21.6h21.4l19.3,39.1l19.3-39.1h21.4l-41.3,83.6H24.9l11.3-22.9L6.2,21.6z"/>
	<path class="st0" d="M106.5,21.6l40.6,83.6h-20.9c-1.7-3.3-5.7-8-11.8-8c-9.6,0-19.8,10-35,10S54.1,91.7,69.2,62.6l21.3-40.9H106.5
		z M98.5,48.3l-9.3,18.4c-4.8,9.5-11.7,23.7-2.8,23.7c7.1,0,17.7-8.7,27.9-10L98.5,48.3z"/>
	<path class="st0" d="M179.8,19.7c10.5,0,19.7,3,27,8.1v19.7h-2.2c-7.5-9.6-17.6-12.3-24.8-12.3c-15,0-25.8,11.9-25.8,28.3
		s10.8,28.3,25.8,28.3c7.3,0,17.3-2.7,24.8-12.3h2.2v19.7c-7.4,5.2-16.6,8.1-27,8.1c-26.1,0-45-18.4-45-43.8
		C134.8,38.1,153.7,19.7,179.8,19.7z"/>
	<path class="st0" d="M229.7,21.6v21.8c0,12.4,20.7,5,35.4,8.5V21.6h18.9v83.6h-18.9V73.6c0-12.4-20.7-5-35.4-8.5v40.1h-18.9V21.6
		H229.7z"/>
	<path class="st0" d="M331.9,21.6l40.6,83.6h-20.9c-1.7-3.3-5.7-8-11.8-8c-9.6,0-19.8,10-35,10s-25.2-15.5-10.1-44.6l21.3-40.9
		H331.9z M323.9,48.3l-9.3,18.4c-4.8,9.5-11.7,23.7-2.8,23.7c7.1,0,17.7-8.7,27.9-10L323.9,48.3z"/>
	<path class="st0" d="M356.3,21.6h21.4L397,60.7l19.3-39.1h21.4l-41.3,83.6H375l11.3-22.9L356.3,21.6z"/>
</g>
</svg>
